<?xml version="1.0" encoding="UTF-8"?>
<svg width="516px" height="57px" viewBox="0 0 516 57" version="1.1" xmlns="http://www.w3.org/2000/svg" xmlns:xlink="http://www.w3.org/1999/xlink">
    <g id="Page-1" stroke="none" stroke-width="1" fill="none" fill-rule="evenodd">
        <g id="logo" transform="translate(-45.000000, -302.000000)" fill="#FFFFFF">
            <path d="M81.3921879,354.525597 C77.1258507,357.508547 72.1785159,359 66.550035,359 C59.5080086,359 54.1558918,356.561799 50.4935241,351.685324 C46.8311564,346.808849 45,339.75363 45,330.519454 C45,321.596542 46.7733304,314.612653 50.3200444,309.567577 C53.8667584,304.5225 59.2767012,302 66.550035,302 C69.1715192,302 71.7672637,302.337198 74.3373464,303.011604 C76.907429,303.68601 78.9763144,304.580882 80.5440648,305.696246 L78.4623083,310.715358 C74.8384918,308.640263 70.8677738,307.60273 66.550035,307.60273 C61.5383739,307.60273 57.81181,309.437866 55.3702315,313.108191 C52.928653,316.778517 51.7078821,322.582213 51.7078821,330.519454 C51.7078821,345.771407 56.6552169,353.39727 66.550035,353.39727 C70.7392696,353.39727 75.0312432,352.100354 79.4260845,349.506485 L81.3921879,354.525597 Z M111.076494,302 C117.167589,302 121.812944,304.431716 125.012697,309.295222 C128.21245,314.158727 129.812302,321.233401 129.812302,330.519454 C129.812302,339.75363 128.218875,346.808849 125.031972,351.685324 C121.84507,356.561799 117.19329,359 111.076494,359 C105.011099,359 100.378594,356.568284 97.1788414,351.704778 C93.9790885,346.841273 92.3792361,339.779568 92.3792361,330.519454 C92.3792361,321.259339 93.9726634,314.191151 97.1595659,309.314676 C100.346468,304.438201 104.985398,302 111.076494,302 Z M111.076494,353.39727 C119.095151,353.39727 123.10442,345.771407 123.10442,330.519454 C123.10442,315.241562 119.095151,307.60273 111.076494,307.60273 C107.169968,307.60273 104.195142,309.580526 102.151926,313.536177 C100.108711,317.491829 99.0871182,323.152864 99.0871182,330.519454 C99.0871182,337.96386 100.102286,343.637864 102.132651,347.541638 C104.163016,351.445412 107.144267,353.39727 111.076494,353.39727 Z M142.919658,303.050512 L153.636849,303.050512 C160.755978,303.050512 166.461476,305.495197 170.753514,310.384642 C175.045552,315.274086 177.191538,321.985623 177.191538,330.519454 C177.191538,339.234856 175.013426,345.9853 170.657136,350.77099 C166.300846,355.556679 160.717425,357.949488 153.906706,357.949488 L142.919658,357.949488 L142.919658,303.050512 Z M149.24203,352.385666 L153.713951,352.385666 C158.879817,352.385666 162.966187,350.453262 165.973184,346.588396 C168.98018,342.72353 170.483656,337.36727 170.483656,330.519454 C170.483656,323.723516 168.973755,318.37374 165.953908,314.469966 C162.934061,310.566192 158.854116,308.614334 153.713951,308.614334 L149.24203,308.614334 L149.24203,352.385666 Z M220.522915,357.949488 L192.110793,357.949488 L192.110793,303.050512 L220.291608,303.050512 L220.291608,308.614334 L198.433165,308.614334 L198.433165,325.617065 L219.443485,325.617065 L219.443485,331.180887 L198.433165,331.180887 L198.433165,352.385666 L220.522915,352.385666 L220.522915,357.949488 Z M270.83203,357.949488 L264.740965,357.949488 L264.740965,310.87099 L256.529592,333.398635 L250.55418,333.398635 L242.342807,310.87099 L242.342807,357.949488 L236.251742,357.949488 L236.251742,303.050512 L244.463114,303.050512 L253.561161,328.068259 L262.620657,303.050512 L270.83203,303.050512 L270.83203,357.949488 Z M322.336228,357.949488 L315.705448,357.949488 L309.691485,338.72901 L291.842351,338.72901 L285.751285,357.949488 L279.197607,357.949488 L296.96964,303.050512 L304.564196,303.050512 L322.336228,357.949488 Z M307.879586,333.165188 L300.747642,310.443003 L293.65425,333.165188 L307.879586,333.165188 Z M359.653641,309.120137 C356.415337,308.004773 353.344135,307.447099 350.439941,307.447099 C347.150235,307.447099 344.470964,308.205794 342.402048,309.723208 C340.333131,311.240622 339.298689,313.399986 339.298689,316.201365 C339.298689,319.521518 342.010085,322.439578 347.43296,324.955631 C351.442288,326.823218 354.095859,328.120133 355.393751,328.846416 C356.691642,329.5727 358.00879,330.571325 359.345233,331.842321 C360.681676,333.113317 361.754669,334.611254 362.564245,336.336177 C363.373821,338.061101 363.778603,339.999989 363.778603,342.152901 C363.778603,347.496272 361.998848,351.639917 358.439283,354.583959 C354.879719,357.528001 350.684122,359 345.852367,359 C341.174816,359 337.075596,358.066221 333.554583,356.198635 L334.865318,350.712628 C339.003151,352.606153 342.614063,353.552901 345.698162,353.552901 C349.296278,353.552901 352.181153,352.612637 354.352872,350.732082 C356.524592,348.851526 357.610436,346.26418 357.610436,342.969966 C357.610436,340.531728 356.903674,338.463148 355.490128,336.764164 C354.076583,335.065179 351.467988,333.333797 347.664266,331.569966 C343.75774,329.754257 341.232672,328.515703 340.088985,327.854266 C338.945298,327.192829 337.808054,326.278504 336.677218,325.111263 C335.546381,323.944021 334.672566,322.634137 334.055746,321.18157 C333.438927,319.729003 333.130521,318.146766 333.130521,316.434812 C333.130521,311.89554 334.749649,308.354962 337.987953,305.812969 C341.226257,303.270977 345.325478,302 350.285737,302 C353.909553,302 357.507615,302.557674 361.08003,303.673038 L359.653641,309.120137 Z M395.35191,302 C401.443006,302 406.088361,304.431716 409.288114,309.295222 C412.487866,314.158727 414.087719,321.233401 414.087719,330.519454 C414.087719,339.75363 412.494292,346.808849 409.307389,351.685324 C406.120487,356.561799 401.468707,359 395.35191,359 C389.286515,359 384.654011,356.568284 381.454258,351.704778 C378.254505,346.841273 376.654653,339.779568 376.654653,330.519454 C376.654653,321.259339 378.24808,314.191151 381.434983,309.314676 C384.621885,304.438201 389.260814,302 395.35191,302 Z M395.35191,353.39727 C403.370568,353.39727 407.379837,345.771407 407.379837,330.519454 C407.379837,315.241562 403.370568,307.60273 395.35191,307.60273 C391.445385,307.60273 388.470559,309.580526 386.427343,313.536177 C384.384127,317.491829 383.362535,323.152864 383.362535,330.519454 C383.362535,337.96386 384.377702,343.637864 386.408068,347.541638 C388.438433,351.445412 391.419684,353.39727 395.35191,353.39727 Z M459.230994,357.949488 L452.214704,357.949488 L432.707874,314.606143 L432.707874,357.949488 L426.385503,357.949488 L426.385503,303.050512 L433.440344,303.050512 L453.024276,346.004778 L453.024276,303.050512 L459.230994,303.050512 L459.230994,357.949488 Z M499.928563,357.708944 L486.075846,357.708944 L486.075846,350.796254 L499.928563,350.796254 L499.928563,357.708944 Z M519.905201,319.683421 L519.905201,326.596111 L486.077326,326.596111 L486.077326,319.683421 L519.905201,319.683421 Z M486.077326,311.045919 L486.077326,304.133229 L510.203908,304.133229 L510.203908,311.045919 L486.077326,311.045919 Z M509.631502,335.239754 L509.631502,342.152445 L486.077326,342.152445 L486.077326,335.239754 L509.631502,335.239754 Z M530.937174,357.708778 L509.631502,357.708778 L509.631502,350.796088 L530.937174,350.796088 L530.937174,357.708778 Z M561,357.708778 L540.452601,357.708778 L540.452601,350.796088 L561,350.796088 L561,357.708778 Z M561,342.152112 L519.905201,342.152112 L519.905201,335.239422 L561,335.239422 L561,342.152112 Z M540.452601,311.045753 L519.905201,311.045753 L519.905201,304.133063 L540.452601,304.133063 L540.452601,311.045753 Z M551.009214,319.683255 L551.009214,326.595945 L530.937174,326.595945 L530.937174,319.683255 L551.009214,319.683255 Z" id="Combined-Shape"></path>
        </g>
    </g>
</svg>
